<?xml version="1.0" encoding="utf-8"?>
<!-- Generator: Adobe Illustrator 27.7.0, SVG Export Plug-In . SVG Version: 6.00 Build 0)  -->
<svg version="1.1" id="Layer_1" xmlns="http://www.w3.org/2000/svg" xmlns:xlink="http://www.w3.org/1999/xlink" x="0px" y="0px"
	 viewBox="0 0 696.2 802.9" style="enable-background:new 0 0 696.2 802.9;" xml:space="preserve">
<style type="text/css">
	.st0{fill-rule:evenodd;clip-rule:evenodd;fill:none;stroke:#FFFFFF;stroke-miterlimit:10;}
	.st1{fill:none;stroke:#FFFFFF;stroke-width:53;stroke-miterlimit:10;}
</style>
<g>
	<g>
		<polygon class="st0" points="376.6,383.7 376.6,451.8 347.1,434.8 317.6,417.7 258.6,383.7 258.6,554 229.1,571 199.6,554 
			199.6,349.6 140.6,315.6 111.1,298.5 81.6,281.5 81.6,247.4 111.1,230.4 140.6,247.4 170.1,264.5 229.1,298.5 258.6,315.6 
			347.1,366.6 		"/>
	</g>
	<g>
		<polygon class="st0" points="494.6,349.6 494.6,554 524,537 524.1,537 553.6,519.9 612.6,485.9 612.6,554 583.1,571 553.6,588.1 
			494.6,622.1 465.1,639.2 435.6,656.2 435.6,349.6 406,332.6 376.6,315.6 347.1,298.5 288.1,264.5 258.6,247.4 199.6,213.4 
			170.1,196.3 229.1,162.3 258.6,145.2 317.6,111.2 347.1,94.1 376.6,111.2 376.6,145.2 347.1,162.3 288.1,196.3 317.6,213.4 
			376.6,247.4 406.1,264.5 465.1,298.5 494.6,281.5 524,264.5 553.6,247.4 583.1,230.4 612.6,247.4 612.6,281.5 583.1,298.5 
			553.6,315.6 		"/>
	</g>
	<g>
		<polygon class="st0" points="406.1,128.2 376.6,145.2 376.6,111.2 		"/>
	</g>
	<g>
		<polygon class="st0" points="376.6,656.2 376.6,690.3 347.1,707.3 317.6,690.3 288.1,673.2 229.1,639.2 199.6,622.1 140.6,588.1 
			111.1,571 81.6,554 81.6,485.9 140.6,519.9 170.1,537 229.1,571 258.6,554 258.6,588.1 317.6,622.1 347.1,639.2 		"/>
	</g>
</g>
<polygon class="st1" points="669.7,216 348.6,30.6 27.4,216 27.4,586.9 348.6,772.3 669.7,586.9 "/>
</svg>
